<svg width="47" height="47" viewBox="0 0 47 47" fill="none" xmlns="http://www.w3.org/2000/svg">
<g clip-path="url(#clip0_60_284)">
<path d="M45.7069 45.7069C43.9827 47.431 41.1882 47.431 39.4639 45.7069L31.6739 37.9167C28.4712 39.9713 24.6854 41.1954 20.5978 41.1954C9.22274 41.1954 0 31.974 0 20.5977C0 9.22136 9.22274 0 20.5978 0C31.9742 0 41.1955 9.22118 41.1955 20.5977C41.1955 24.6839 39.9698 28.4712 37.9167 31.6753L45.7069 39.4655C47.431 41.1896 47.431 43.9827 45.7069 45.7069ZM20.5978 5.88501C12.4727 5.88501 5.8851 12.4712 5.8851 20.5976C5.8851 28.724 12.4728 35.3102 20.5978 35.3102C28.7241 35.3102 35.3103 28.724 35.3103 20.5976C35.3103 12.4712 28.7241 5.88501 20.5978 5.88501Z" fill="black"/>
</g>
<defs>
<clipPath id="clip0_60_284">
<rect width="47" height="47" fill="white"/>
</clipPath>
</defs>
</svg>
