<svg width="21" height="20" viewBox="0 0 21 20" fill="none" xmlns="http://www.w3.org/2000/svg">
<path d="M20.0463 7.64095C20.1463 7.14095 19.7463 6.54095 19.2463 6.54095L13.5463 5.74095L10.9463 0.540954C10.8463 0.340954 10.7463 0.240954 10.5463 0.140954C10.0463 -0.159046 9.44633 0.0409541 9.14633 0.540954L6.64633 5.74095L0.946326 6.54095C0.646326 6.54095 0.446326 6.64095 0.346326 6.84095C-0.0536743 7.24095 -0.0536743 7.84095 0.346326 8.24095L4.44633 12.241L3.44633 17.941C3.44633 18.141 3.44633 18.341 3.54633 18.541C3.84633 19.041 4.44633 19.241 4.94633 18.941L10.0463 16.241L15.1463 18.941C15.2463 19.041 15.4463 19.041 15.6463 19.041C15.7463 19.041 15.7463 19.041 15.8463 19.041C16.3463 18.941 16.7463 18.441 16.6463 17.841L15.6463 12.141L19.7463 8.14095C19.9463 8.04095 20.0463 7.84095 20.0463 7.64095Z" fill="#FFFA41"/>
</svg>
