<svg width="100" height="15" viewBox="0 0 100 15" fill="none" xmlns="http://www.w3.org/2000/svg">
<path d="M0.880913 13.4357L0.938071 0.218572L3.73252 0.230657L3.70731 6.05833L3.88156 6.05909L8.66313 0.251979L12.0126 0.266464L7.0822 6.16328L12.0135 13.4839L8.67051 13.4694L5.07349 8.01975L3.6916 9.69176L3.67536 13.4478L0.880913 13.4357ZM16.1332 7.7707L16.1084 13.5016L13.3591 13.4897L13.402 3.57682L16.0222 3.58815L16.0146 5.3371L16.1308 5.3376C16.3527 4.76202 16.7225 4.30755 17.2403 3.97419C17.758 3.63653 18.3848 3.46929 19.1205 3.47247C19.8089 3.47545 20.4084 3.62863 20.9191 3.93202C21.4298 4.2354 21.8259 4.66737 22.1075 5.22792C22.389 5.78416 22.5282 6.44736 22.5248 7.2175L22.4975 13.5292L19.7483 13.5173L19.7734 7.69609C19.7804 7.08946 19.6275 6.61552 19.3149 6.27427C19.0023 5.92871 18.5707 5.75474 18.02 5.75236C17.6499 5.75076 17.3226 5.82894 17.038 5.98691C16.7576 6.14489 16.5372 6.37627 16.3767 6.68106C16.2205 6.98156 16.1393 7.34477 16.1332 7.7707ZM29.1424 13.7516C28.1399 13.7472 27.2739 13.5305 26.5443 13.1014C25.8191 12.668 25.2602 12.0675 24.8677 11.3C24.4752 10.5281 24.2811 9.63451 24.2855 8.61913C24.2899 7.59515 24.4917 6.70109 24.8908 5.93697C25.29 5.16854 25.8541 4.57293 26.583 4.15013C27.3163 3.72304 28.1842 3.51167 29.1866 3.51601C30.1891 3.52034 31.053 3.7392 31.7782 4.17259C32.5078 4.6017 33.0688 5.20218 33.4613 5.97403C33.8539 6.74158 34.0479 7.63735 34.0435 8.66133C34.0391 9.67671 33.8373 10.5686 33.4381 11.337C33.039 12.1012 32.4728 12.6968 31.7395 13.1239C31.0106 13.5467 30.1449 13.7559 29.1424 13.7516ZM29.1645 11.6219C29.6206 11.6239 30.0019 11.4964 30.3085 11.2396C30.6151 10.9785 30.8468 10.6224 31.0036 10.1713C31.1648 9.72021 31.2466 9.20641 31.2491 8.62989C31.2516 8.05336 31.1742 7.53887 31.017 7.08642C30.8641 6.63399 30.6354 6.27589 30.3311 6.01212C30.0267 5.74835 29.6465 5.61548 29.1905 5.61351C28.7301 5.61152 28.3423 5.74107 28.0271 6.00216C27.7162 6.26327 27.4802 6.61936 27.319 7.07043C27.1622 7.52152 27.0825 8.03533 27.08 8.61186C27.0775 9.18839 27.1528 9.70286 27.3057 10.1553C27.4629 10.6077 27.6959 10.9659 28.0045 11.2296C28.3175 11.4892 28.7041 11.6199 29.1645 11.6219ZM37.5169 13.5942L34.8621 3.66962L37.6436 3.68165L39.1508 10.3485L39.2412 10.3489L40.8705 3.69561L43.6004 3.70741L45.1981 10.3359L45.282 10.3363L46.8208 3.72134L49.5959 3.73334L46.8618 13.6346L43.9512 13.622L42.2744 7.38035L42.1518 7.37982L40.421 13.6067L37.5169 13.5942ZM55.3346 0.453809L58.7808 0.468712L62.3823 9.36472L62.5372 9.36539L66.2155 0.500864L69.6618 0.515767L69.6046 13.7329L66.894 13.7212L66.9313 5.11843L66.8215 5.11796L63.3642 13.6414L61.5184 13.6334L58.135 5.04812L58.0253 5.04765L57.988 13.6827L55.2774 13.671L55.3346 0.453809ZM76.3333 13.9556C75.3309 13.9513 74.4648 13.7346 73.7353 13.3055C73.01 12.8721 72.4511 12.2716 72.0586 11.5041C71.6661 10.7322 71.4721 9.83859 71.4765 8.82321C71.4809 7.79922 71.6827 6.90517 72.0818 6.14104C72.481 5.37262 73.045 4.777 73.774 4.3542C74.5073 3.92712 75.3751 3.71575 76.3776 3.72008C77.3801 3.72442 78.2439 3.94328 78.9692 4.37667C79.6988 4.80578 80.2598 5.40626 80.6523 6.17811C81.0448 6.94566 81.2389 7.84142 81.2344 8.86541C81.23 9.88079 81.0283 10.7727 80.6291 11.5411C80.23 12.3052 79.6638 12.9008 78.9305 13.3279C78.2015 13.7507 77.3358 13.96 76.3333 13.9556ZM76.3555 11.826C76.8115 11.8279 77.1928 11.7005 77.4994 11.4437C77.806 11.1826 78.0378 10.8264 78.1946 10.3754C78.3558 9.92429 78.4376 9.41049 78.4401 8.83396C78.4426 8.25743 78.3652 7.74295 78.208 7.2905C78.055 6.83807 77.8264 6.47997 77.522 6.2162C77.2177 5.95243 76.8375 5.81956 76.3814 5.81759C75.9211 5.81559 75.5333 5.94515 75.2181 6.20624C74.9072 6.46735 74.6711 6.82344 74.51 7.27451C74.3532 7.7256 74.2735 8.2394 74.271 8.81593C74.2685 9.39246 74.3437 9.90694 74.4967 10.3594C74.6539 10.8118 74.8868 11.1699 75.1955 11.4337C75.5084 11.6932 75.8951 11.824 76.3555 11.826ZM83.0008 13.7908L83.0437 3.87799L85.7091 3.88951L85.7016 5.6191L85.8049 5.61955C85.9882 5.00508 86.2935 4.54172 86.7209 4.22949C87.1482 3.91295 87.6393 3.75588 88.1944 3.75828C88.332 3.75887 88.4804 3.76812 88.6395 3.78602C88.7987 3.80391 88.9384 3.82818 89.0587 3.85882L89.0482 6.29831C88.9193 6.25903 88.7409 6.22384 88.513 6.19274C88.2851 6.16164 88.0765 6.14567 87.8872 6.14486C87.4827 6.14311 87.1209 6.22974 86.8018 6.40477C86.487 6.57551 86.2364 6.81537 86.05 7.12434C85.868 7.43334 85.7761 7.79005 85.7744 8.19448L85.7501 13.8027L83.0008 13.7908ZM94.4924 14.0342C93.4727 14.0297 92.5959 13.8194 91.862 13.4032C91.1324 12.9827 90.5713 12.3908 90.1788 11.6276C89.7862 10.86 89.5922 9.95352 89.5968 8.90802C89.6012 7.88834 89.803 6.99429 90.2021 6.22586C90.6013 5.45743 91.161 4.85965 91.8814 4.43251C92.6061 4.00539 93.4546 3.79393 94.4269 3.79814C95.0809 3.80096 95.6893 3.90901 96.252 4.12227C96.819 4.33124 97.3124 4.64531 97.7323 5.06447C98.1564 5.48365 98.4854 6.00998 98.7193 6.64347C98.9532 7.27265 99.0684 8.00888 99.0647 8.85216L99.0615 9.60724L90.691 9.57104L90.6984 7.86727L96.4809 7.89228C96.4826 7.49645 96.3981 7.14543 96.2273 6.83921C96.0565 6.53299 95.8188 6.29317 95.5141 6.11975C95.2136 5.94205 94.8634 5.85233 94.4632 5.8506C94.0459 5.8488 93.6755 5.944 93.352 6.13622C93.0328 6.32415 92.7821 6.57907 92.6 6.90097C92.4179 7.21857 92.3239 7.57312 92.3179 7.96463L92.3109 9.5845C92.3088 10.075 92.3973 10.4992 92.5764 10.8571C92.7599 11.215 93.019 11.4914 93.3538 11.6865C93.6885 11.8816 94.0861 11.9801 94.5464 11.9821C94.8519 11.9834 95.1318 11.9416 95.386 11.8566C95.6402 11.7717 95.858 11.6435 96.0395 11.4722C96.2209 11.3009 96.3595 11.0907 96.4552 10.8416L98.9973 11.0203C98.8656 11.6307 98.5987 12.1631 98.1966 12.6174C97.7988 13.0675 97.2853 13.4181 96.656 13.6692C96.0311 13.916 95.3099 14.0377 94.4924 14.0342Z" fill="black"/>
</svg>
