<svg width="21" height="20" viewBox="0 0 21 20" fill="none" xmlns="http://www.w3.org/2000/svg">
<path d="M20.0154 7.64095C20.1154 7.14095 19.7154 6.54095 19.2154 6.54095L13.5154 5.74095L10.9154 0.540954C10.8154 0.340954 10.7154 0.240954 10.5154 0.140954C10.0154 -0.159046 9.41544 0.0409541 9.11544 0.540954L6.61544 5.74095L0.915442 6.54095C0.615442 6.54095 0.415442 6.64095 0.315442 6.84095C-0.0845581 7.24095 -0.0845581 7.84095 0.315442 8.24095L4.41544 12.241L3.41544 17.941C3.41544 18.141 3.41544 18.341 3.51544 18.541C3.81544 19.041 4.41544 19.241 4.91544 18.941L10.0154 16.241L15.1154 18.941C15.2154 19.041 15.4154 19.041 15.6154 19.041C15.7154 19.041 15.7154 19.041 15.8154 19.041C16.3154 18.941 16.7154 18.441 16.6154 17.841L15.6154 12.141L19.7154 8.14095C19.9154 8.04095 20.0154 7.84095 20.0154 7.64095Z" fill="#FFFA41"/>
</svg>
