<svg width="21" height="20" viewBox="0 0 21 20" fill="none" xmlns="http://www.w3.org/2000/svg">
<path d="M20.0618 7.64095C20.1618 7.14095 19.7618 6.54095 19.2618 6.54095L13.5618 5.74095L10.9618 0.540954C10.8618 0.340954 10.7618 0.240954 10.5618 0.140954C10.0618 -0.159046 9.46177 0.0409541 9.16177 0.540954L6.66177 5.74095L0.961768 6.54095C0.661768 6.54095 0.461768 6.64095 0.361768 6.84095C-0.0382324 7.24095 -0.0382324 7.84095 0.361768 8.24095L4.46177 12.241L3.46177 17.941C3.46177 18.141 3.46177 18.341 3.56177 18.541C3.86177 19.041 4.46177 19.241 4.96177 18.941L10.0618 16.241L15.1618 18.941C15.2618 19.041 15.4618 19.041 15.6618 19.041C15.7618 19.041 15.7618 19.041 15.8618 19.041C16.3618 18.941 16.7618 18.441 16.6618 17.841L15.6618 12.141L19.7618 8.14095C19.9618 8.04095 20.0618 7.84095 20.0618 7.64095Z" fill="#FFFA41"/>
</svg>
