<svg width="21" height="20" viewBox="0 0 21 20" fill="none" xmlns="http://www.w3.org/2000/svg">
<path d="M20.0309 7.64095C20.1309 7.14095 19.7309 6.54095 19.2309 6.54095L13.5309 5.74095L10.9309 0.540954C10.8309 0.340954 10.7309 0.240954 10.5309 0.140954C10.0309 -0.159046 9.43088 0.0409541 9.13088 0.540954L6.63088 5.74095L0.930884 6.54095C0.630884 6.54095 0.430884 6.64095 0.330884 6.84095C-0.0691162 7.24095 -0.0691162 7.84095 0.330884 8.24095L4.43088 12.241L3.43088 17.941C3.43088 18.141 3.43088 18.341 3.53088 18.541C3.83088 19.041 4.43088 19.241 4.93088 18.941L10.0309 16.241L15.1309 18.941C15.2309 19.041 15.4309 19.041 15.6309 19.041C15.7309 19.041 15.7309 19.041 15.8309 19.041C16.3309 18.941 16.7309 18.441 16.6309 17.841L15.6309 12.141L19.7309 8.14095C19.9309 8.04095 20.0309 7.84095 20.0309 7.64095Z" fill="#FFFA41"/>
</svg>
